# xmcd CD database file
# Copyright (C) 1993-1998 Ti Kan
# 
# Track frame offsets:
#     180
#     20740
#     34168
#     58847
#     72632
#     87939
#     102072
#     120228
#     138504
#     156606
# 
# Disc length: 2349 seconds
# 
# Revision: 1
# Processed by: cddbd v1.4b41PL1 Copyright (c) Steve Scherf et al.
# Submitted via: DiscPlay 4.0.4
# 
DISCID=8d092b0a
DTITLE=Monti Amundson and The Blubinos - The Obvious Rock
DYEAR=1900
DGENRE=
TTITLE0=The Obvious Rock
TTITLE1=Lonely
TTITLE2=Win For Losin'
TTITLE3=When It Comes To Love
TTITLE4=Miss Ann
TTITLE5=Trouble Boys
TTITLE6=Drive All Night
TTITLE7=Route 66
TTITLE8=My Baby, She Left Me
TTITLE9=King's New Clothes
EXTD=
EXTT0=M. Admundson\n
EXTT1=M. Amundson\n
EXTT2=M. Amundson\n
EXTT3=M. Amundson\n
EXTT4=R. Penniman, E. Johnson\n
EXTT5=B. Murray\n
EXTT6=M. Amundson\n
EXTT7=B Troup\n
EXTT8=E. Johns\n
EXTT9=M. Amundson\n
PLAYORDER=
